<svg width="223" height="58" viewBox="0 0 223 58" fill="none" xmlns="http://www.w3.org/2000/svg">
<path d="M4.3125 35.0398V29.0398L28.3125 18.4716V25.375L11.8807 31.9716L12.1023 31.6136V32.4659L11.8807 32.108L28.3125 38.7045V45.608L4.3125 35.0398ZM50.7273 9.45454L39.4773 51.25H33.2216L44.4716 9.45454H50.7273ZM54.3622 46V11.0909H61.7429V25.4943H76.7259V11.0909H84.0895V46H76.7259V31.5795H61.7429V46H54.3622ZM88.8452 17.1761V11.0909H117.516V17.1761H106.828V46H99.5327V17.1761H88.8452ZM122.237 11.0909H131.339L140.953 34.5455H141.362L150.976 11.0909H160.078V46H152.919V23.2784H152.629L143.595 45.8295H138.72L129.686 23.1932H129.396V46H122.237V11.0909ZM166.159 46V11.0909H173.54V39.9148H188.506V46H166.159ZM218.672 31.767L194.672 42.3352V35.4318L211.104 28.8352L210.882 29.1932V28.3409L211.104 28.6989L194.672 22.1023V15.1989L218.672 25.767V31.767Z" fill="#30CBC2"/>
</svg>
